<mxfile host="app.diagrams.net" modified="2024-06-05T14:43:46.691Z" agent="Mozilla/5.0 (Windows NT 10.0; Win64; x64) AppleWebKit/537.36 (KHTML, like Gecko) Chrome/125.0.0.0 Safari/537.36" etag="lu8qp7Y6R-4vwLTQuyNO" version="24.4.14" type="device">
  <diagram name="Page-1" id="74e2e168-ea6b-b213-b513-2b3c1d86103e">
    <mxGraphModel dx="2295" dy="650" grid="1" gridSize="10" guides="1" tooltips="1" connect="1" arrows="1" fold="1" page="1" pageScale="1" pageWidth="1100" pageHeight="850" background="none" math="0" shadow="0">
      <root>
        <mxCell id="0" />
        <mxCell id="1" parent="0" />
        <mxCell id="77e6c97f196da883-1" value="Pool" style="swimlane;html=1;childLayout=stackLayout;startSize=20;rounded=0;shadow=0;labelBackgroundColor=none;strokeWidth=1;fontFamily=Verdana;fontSize=8;align=center;" parent="1" vertex="1">
          <mxGeometry x="-90" y="40" width="1280" height="400" as="geometry" />
        </mxCell>
        <mxCell id="77e6c97f196da883-3" value="Lane 1" style="swimlane;html=1;startSize=20;" parent="77e6c97f196da883-1" vertex="1">
          <mxGeometry y="20" width="160" height="380" as="geometry" />
        </mxCell>
        <mxCell id="77e6c97f196da883-4" value="Lane 2" style="swimlane;html=1;startSize=20;" parent="77e6c97f196da883-1" vertex="1">
          <mxGeometry x="160" y="20" width="170" height="380" as="geometry" />
        </mxCell>
        <mxCell id="77e6c97f196da883-5" value="Lane 3" style="swimlane;html=1;startSize=20;" parent="77e6c97f196da883-1" vertex="1">
          <mxGeometry x="330" y="20" width="160" height="380" as="geometry" />
        </mxCell>
        <mxCell id="77e6c97f196da883-6" value="Lane 4" style="swimlane;html=1;startSize=20;" parent="77e6c97f196da883-1" vertex="1">
          <mxGeometry x="490" y="20" width="190" height="380" as="geometry" />
        </mxCell>
        <mxCell id="77e6c97f196da883-26" style="edgeStyle=orthogonalEdgeStyle;rounded=1;html=1;labelBackgroundColor=none;startArrow=none;startFill=0;startSize=5;endArrow=classicThin;endFill=1;endSize=5;jettySize=auto;orthogonalLoop=1;strokeWidth=1;fontFamily=Verdana;fontSize=8" parent="77e6c97f196da883-6" edge="1">
          <mxGeometry relative="1" as="geometry">
            <mxPoint x="-190" y="95" as="sourcePoint" />
            <mxPoint x="-120" y="95" as="targetPoint" />
          </mxGeometry>
        </mxCell>
        <mxCell id="TKtGQp4_FdU6gLdsX2gH-6" style="edgeStyle=orthogonalEdgeStyle;rounded=0;orthogonalLoop=1;jettySize=auto;html=1;exitX=1;exitY=0.5;exitDx=0;exitDy=0;" edge="1" parent="77e6c97f196da883-6" source="TKtGQp4_FdU6gLdsX2gH-1">
          <mxGeometry relative="1" as="geometry">
            <mxPoint x="-120" y="95" as="targetPoint" />
          </mxGeometry>
        </mxCell>
        <mxCell id="TKtGQp4_FdU6gLdsX2gH-7" value="判斷臀部中點高度是否高於膝蓋中點+預設距離" style="rhombus;whiteSpace=wrap;html=1;" vertex="1" parent="77e6c97f196da883-6">
          <mxGeometry x="-120" y="60" width="100" height="70" as="geometry" />
        </mxCell>
        <mxCell id="TKtGQp4_FdU6gLdsX2gH-26" value="NO" style="text;html=1;align=center;verticalAlign=middle;whiteSpace=wrap;rounded=0;" vertex="1" parent="77e6c97f196da883-6">
          <mxGeometry x="-40" y="190" width="60" height="30" as="geometry" />
        </mxCell>
        <mxCell id="TKtGQp4_FdU6gLdsX2gH-9" value="YES" style="text;html=1;align=center;verticalAlign=middle;whiteSpace=wrap;rounded=0;" vertex="1" parent="77e6c97f196da883-6">
          <mxGeometry x="-10" y="100" width="60" height="30" as="geometry" />
        </mxCell>
        <mxCell id="TKtGQp4_FdU6gLdsX2gH-10" value="狀態=起立" style="shape=parallelogram;perimeter=parallelogramPerimeter;whiteSpace=wrap;html=1;fixedSize=1;" vertex="1" parent="77e6c97f196da883-6">
          <mxGeometry x="40" y="60" width="120" height="70" as="geometry" />
        </mxCell>
        <mxCell id="TKtGQp4_FdU6gLdsX2gH-14" value="狀態=坐下" style="shape=parallelogram;perimeter=parallelogramPerimeter;whiteSpace=wrap;html=1;fixedSize=1;" vertex="1" parent="77e6c97f196da883-6">
          <mxGeometry x="37" y="180" width="120" height="70" as="geometry" />
        </mxCell>
        <mxCell id="TKtGQp4_FdU6gLdsX2gH-28" style="edgeStyle=orthogonalEdgeStyle;rounded=0;orthogonalLoop=1;jettySize=auto;html=1;exitX=1;exitY=0.5;exitDx=0;exitDy=0;" edge="1" parent="77e6c97f196da883-6" source="TKtGQp4_FdU6gLdsX2gH-16">
          <mxGeometry relative="1" as="geometry">
            <mxPoint x="370" y="215" as="targetPoint" />
          </mxGeometry>
        </mxCell>
        <mxCell id="TKtGQp4_FdU6gLdsX2gH-16" value="判斷上個狀態&lt;div&gt;是否為起立&lt;/div&gt;" style="rhombus;whiteSpace=wrap;html=1;" vertex="1" parent="77e6c97f196da883-6">
          <mxGeometry x="213" y="175" width="110" height="80" as="geometry" />
        </mxCell>
        <mxCell id="TKtGQp4_FdU6gLdsX2gH-25" value="NO" style="text;html=1;align=center;verticalAlign=middle;whiteSpace=wrap;rounded=0;" vertex="1" parent="77e6c97f196da883-6">
          <mxGeometry x="230" y="280" width="60" height="30" as="geometry" />
        </mxCell>
        <mxCell id="TKtGQp4_FdU6gLdsX2gH-29" value="YES" style="text;html=1;align=center;verticalAlign=middle;whiteSpace=wrap;rounded=0;" vertex="1" parent="77e6c97f196da883-6">
          <mxGeometry x="310" y="220" width="60" height="30" as="geometry" />
        </mxCell>
        <mxCell id="TKtGQp4_FdU6gLdsX2gH-31" value="完整動作&lt;div&gt;起立坐下+=1&lt;/div&gt;" style="shape=parallelogram;perimeter=parallelogramPerimeter;whiteSpace=wrap;html=1;fixedSize=1;" vertex="1" parent="77e6c97f196da883-6">
          <mxGeometry x="360" y="180" width="110" height="70" as="geometry" />
        </mxCell>
        <mxCell id="TKtGQp4_FdU6gLdsX2gH-13" style="edgeStyle=orthogonalEdgeStyle;rounded=0;orthogonalLoop=1;jettySize=auto;html=1;entryX=0.049;entryY=0.619;entryDx=0;entryDy=0;entryPerimeter=0;" edge="1" parent="77e6c97f196da883-6" source="TKtGQp4_FdU6gLdsX2gH-7" target="TKtGQp4_FdU6gLdsX2gH-14">
          <mxGeometry relative="1" as="geometry">
            <mxPoint x="-70" y="220" as="targetPoint" />
            <Array as="points">
              <mxPoint x="-70" y="223" />
            </Array>
          </mxGeometry>
        </mxCell>
        <mxCell id="TKtGQp4_FdU6gLdsX2gH-19" style="edgeStyle=orthogonalEdgeStyle;rounded=0;orthogonalLoop=1;jettySize=auto;html=1;exitX=1;exitY=0.5;exitDx=0;exitDy=0;entryX=0;entryY=0.5;entryDx=0;entryDy=0;" edge="1" parent="77e6c97f196da883-6" source="TKtGQp4_FdU6gLdsX2gH-14" target="TKtGQp4_FdU6gLdsX2gH-16">
          <mxGeometry relative="1" as="geometry" />
        </mxCell>
        <mxCell id="TKtGQp4_FdU6gLdsX2gH-20" style="edgeStyle=orthogonalEdgeStyle;rounded=0;orthogonalLoop=1;jettySize=auto;html=1;exitX=0.5;exitY=1;exitDx=0;exitDy=0;" edge="1" parent="77e6c97f196da883-6" source="TKtGQp4_FdU6gLdsX2gH-16" target="TKtGQp4_FdU6gLdsX2gH-7">
          <mxGeometry relative="1" as="geometry" />
        </mxCell>
        <mxCell id="TKtGQp4_FdU6gLdsX2gH-27" style="edgeStyle=orthogonalEdgeStyle;rounded=0;orthogonalLoop=1;jettySize=auto;html=1;exitX=1;exitY=0.5;exitDx=0;exitDy=0;entryX=0;entryY=0.5;entryDx=0;entryDy=0;" edge="1" parent="77e6c97f196da883-6" source="TKtGQp4_FdU6gLdsX2gH-7" target="TKtGQp4_FdU6gLdsX2gH-10">
          <mxGeometry relative="1" as="geometry" />
        </mxCell>
        <mxCell id="TKtGQp4_FdU6gLdsX2gH-33" style="edgeStyle=orthogonalEdgeStyle;rounded=0;orthogonalLoop=1;jettySize=auto;html=1;exitX=1;exitY=0.5;exitDx=0;exitDy=0;" edge="1" parent="77e6c97f196da883-6">
          <mxGeometry relative="1" as="geometry">
            <mxPoint x="-120" y="95" as="targetPoint" />
            <mxPoint x="-170" y="95" as="sourcePoint" />
          </mxGeometry>
        </mxCell>
        <mxCell id="TKtGQp4_FdU6gLdsX2gH-1" value="抓出膝蓋以及腰部中點,計算設定距離" style="rounded=0;whiteSpace=wrap;html=1;" vertex="1" parent="77e6c97f196da883-6">
          <mxGeometry x="-290" y="65" width="120" height="60" as="geometry" />
        </mxCell>
        <mxCell id="TKtGQp4_FdU6gLdsX2gH-43" style="edgeStyle=orthogonalEdgeStyle;rounded=0;orthogonalLoop=1;jettySize=auto;html=1;entryX=0;entryY=0.5;entryDx=0;entryDy=0;" edge="1" parent="77e6c97f196da883-6" source="TKtGQp4_FdU6gLdsX2gH-42" target="TKtGQp4_FdU6gLdsX2gH-1">
          <mxGeometry relative="1" as="geometry" />
        </mxCell>
        <mxCell id="TKtGQp4_FdU6gLdsX2gH-42" value="&lt;font style=&quot;font-size: 24px;&quot;&gt;開始&lt;/font&gt;" style="rounded=1;whiteSpace=wrap;html=1;" vertex="1" parent="77e6c97f196da883-6">
          <mxGeometry x="-470" y="65" width="120" height="60" as="geometry" />
        </mxCell>
        <mxCell id="77e6c97f196da883-7" value="Lane 5" style="swimlane;html=1;startSize=20;" parent="77e6c97f196da883-1" vertex="1">
          <mxGeometry x="680" y="20" width="160" height="380" as="geometry" />
        </mxCell>
        <mxCell id="TKtGQp4_FdU6gLdsX2gH-48" value="Lane 6" style="swimlane;html=1;startSize=20;" vertex="1" parent="77e6c97f196da883-1">
          <mxGeometry x="840" y="20" width="160" height="380" as="geometry" />
        </mxCell>
        <mxCell id="TKtGQp4_FdU6gLdsX2gH-50" value="Lane 7" style="swimlane;html=1;startSize=20;" vertex="1" parent="77e6c97f196da883-1">
          <mxGeometry x="1000" y="20" width="160" height="380" as="geometry" />
        </mxCell>
        <mxCell id="TKtGQp4_FdU6gLdsX2gH-51" value="&lt;font style=&quot;font-size: 24px;&quot;&gt;結束&lt;/font&gt;" style="rounded=1;whiteSpace=wrap;html=1;" vertex="1" parent="TKtGQp4_FdU6gLdsX2gH-50">
          <mxGeometry x="20" y="185" width="120" height="60" as="geometry" />
        </mxCell>
        <mxCell id="TKtGQp4_FdU6gLdsX2gH-52" style="edgeStyle=orthogonalEdgeStyle;rounded=0;orthogonalLoop=1;jettySize=auto;html=1;exitX=1;exitY=0.5;exitDx=0;exitDy=0;entryX=0;entryY=0.5;entryDx=0;entryDy=0;" edge="1" parent="77e6c97f196da883-1" source="TKtGQp4_FdU6gLdsX2gH-31" target="TKtGQp4_FdU6gLdsX2gH-51">
          <mxGeometry relative="1" as="geometry" />
        </mxCell>
      </root>
    </mxGraphModel>
  </diagram>
</mxfile>
